<svg width="20" height="20" viewBox="0 0 20 20" fill="none" xmlns="http://www.w3.org/2000/svg">
<path d="M18.9471 6.305C18.9361 5.548 18.7961 4.797 18.5281 4.089C18.0591 2.88 17.1041 1.924 15.8951 1.456C15.1961 1.193 14.4571 1.052 13.7091 1.036C12.7471 0.993003 12.4421 0.981003 10.0001 0.981003C7.55807 0.981003 7.24507 0.981003 6.29007 1.036C5.54307 1.052 4.80407 1.193 4.10507 1.456C2.89607 1.924 1.94007 2.88 1.47207 4.089C1.20907 4.788 1.06707 5.527 1.05307 6.274C1.01007 7.237 0.99707 7.542 0.99707 9.984C0.99707 12.426 0.99707 12.738 1.05307 13.694C1.06807 14.442 1.20907 15.18 1.47207 15.881C1.94107 17.089 2.89607 18.045 4.10607 18.513C4.80207 18.785 5.54107 18.939 6.29107 18.963C7.25407 19.006 7.55907 19.019 10.0011 19.019C12.4431 19.019 12.7561 19.019 13.7111 18.963C14.4581 18.948 15.1971 18.807 15.8971 18.544C17.1061 18.075 18.0611 17.119 18.5301 15.911C18.7931 15.211 18.9341 14.473 18.9491 13.724C18.9921 12.762 19.0051 12.457 19.0051 10.014C19.0031 7.572 19.0031 7.262 18.9471 6.305ZM9.99407 14.602C7.44007 14.602 5.37107 12.533 5.37107 9.979C5.37107 7.425 7.44007 5.356 9.99407 5.356C12.5461 5.356 14.6171 7.425 14.6171 9.979C14.6171 12.533 12.5461 14.602 9.99407 14.602ZM14.8011 6.263C14.2041 6.263 13.7231 5.781 13.7231 5.185C13.7231 4.589 14.2041 4.107 14.8011 4.107C15.3961 4.107 15.8781 4.589 15.8781 5.185C15.8781 5.781 15.3961 6.263 14.8011 6.263Z" fill="black"/>
</svg>
