<svg width="26" height="25" viewBox="0 0 26 25" fill="none" xmlns="http://www.w3.org/2000/svg">
<path d="M1.30843 9.17008C-0.105186 6.78825 1.61141 3.7733 4.38114 3.7733L9.86122 3.7733C11.4284 3.7733 12.9638 3.33161 14.2914 2.49888L17.3435 0.584471C19.7231 -0.908166 22.8152 0.802367 22.8152 3.61142L22.8152 8.27478C22.8152 9.75315 23.2083 11.2049 23.9542 12.4813L25.3715 14.9066C26.935 17.582 24.5846 20.8432 21.5521 20.2063L19.5743 19.7909C16.9851 19.2471 14.2915 19.9645 12.3157 21.7241L10.6759 23.1844C8.37237 25.236 4.7264 23.6008 4.7264 20.5161L4.7264 17.2169C4.7264 15.7194 4.32306 14.2495 3.55875 12.9617L1.30843 9.17008Z" fill="url(#paint0_linear)"/>
<defs>
<linearGradient id="paint0_linear" x1="10.855" y1="1.90856" x2="16.2629" y2="22.0914" gradientUnits="userSpaceOnUse">
<stop stop-color="#FAFAFA"/>
<stop offset="1" stop-color="#899E91"/>
</linearGradient>
</defs>
</svg>
