<svg width="28" height="26" viewBox="0 0 28 26" fill="none" xmlns="http://www.w3.org/2000/svg">
<path d="M1.30843 10.1701C-0.105186 7.78825 1.61141 4.7733 4.38114 4.7733L9.86122 4.7733C11.4284 4.7733 12.9638 4.33161 14.2914 3.49888L17.3435 1.58447C19.7231 0.0918341 22.8152 1.80237 22.8152 4.61142L22.8152 9.27478C22.8152 10.7532 23.2083 12.2049 23.9542 13.4813L25.3715 15.9066C26.935 18.582 24.5846 21.8432 21.5521 21.2063L19.5743 20.7909C16.9851 20.2471 14.2915 20.9645 12.3157 22.7241L10.6759 24.1844C8.37237 26.236 4.7264 24.6008 4.7264 21.5161L4.7264 18.2169C4.7264 16.7194 4.32306 15.2495 3.55875 13.9617L1.30843 10.1701Z" fill="#08321D"/>
</svg>
